<?xml version="1.0" encoding="utf-8"?>
<!-- Generator: Adobe Illustrator 24.2.3, SVG Export Plug-In . SVG Version: 6.00 Build 0)  -->
<svg version="1.1" id="圖層_1" xmlns="http://www.w3.org/2000/svg" xmlns:xlink="http://www.w3.org/1999/xlink" x="0px" y="0px"
	 viewBox="0 0 249 80" style="enable-background:new 0 0 249 80;" xml:space="preserve">
<style type="text/css">
	.st0{fill:#39B3AD;}
	.st1{fill:#65BE78;}
	.st2{clip-path:url(#SVGID_2_);fill:url(#SVGID_3_);}
	.st3{clip-path:url(#SVGID_5_);fill:url(#SVGID_6_);}
	.st4{clip-path:url(#SVGID_8_);fill:url(#SVGID_9_);}
	.st5{clip-path:url(#SVGID_11_);fill:url(#SVGID_12_);}
	.st6{clip-path:url(#SVGID_14_);fill:url(#SVGID_15_);}
	.st7{clip-path:url(#SVGID_17_);fill:url(#SVGID_18_);}
	.st8{clip-path:url(#SVGID_20_);fill:url(#SVGID_21_);}
	.st9{clip-path:url(#SVGID_23_);fill:url(#SVGID_24_);}
	.st10{clip-path:url(#SVGID_26_);fill:url(#SVGID_27_);}
	.st11{clip-path:url(#SVGID_29_);fill:url(#SVGID_30_);}
	.st12{clip-path:url(#SVGID_32_);fill:url(#SVGID_33_);}
</style>
<g>
	<rect x="6.2" y="36.8" class="st0" width="8" height="6.4"/>
	<path class="st1" d="M49.8,46.7c0.4-1.6-0.5-3-2.1-3.9c-0.9-0.5-2.4-1.3-3.9-2.1l0,0c-1.1-0.6-2.4-1.4-3.9-2.3c0,0,0,0,0,0l0,0
		c-0.9-0.5-2-1.1-3.1-1.6c0,0-7-3.7,3.2-8.4c0,0-9.1,1.7-10.3,6.1c-0.4,1.6,0.5,3,2.1,3.9c1,0.5,2.4,1.3,3.9,2.2
		c0.9,0.5,2,1.2,3.3,1.9c0.1,0.1,0.2,0.1,0.3,0.2l0,0c1,0.6,2.1,1.2,3.3,1.8c0,0,7,3.7-3.2,8.4C39.5,52.8,48.6,51.1,49.8,46.7"/>
	<path class="st1" d="M53.8,37.9c0,0,5.2-9.7-12.3-9.6c0,0,6.3,0.7,7.2,3.4c0,0-6.3-2.6-8.2-2.2c0,0-0.1,4.4,8.2,5.5
		C53,35.7,53.8,37.9,53.8,37.9"/>
	<path class="st1" d="M40.2,0C19.2,0,2,16.2,0.4,36.8h5.8C7.7,20.5,20.7,7.5,37,6v5.2c-5.8,1.4-10,6.6-10,12.8V31
		c12.8-11.2,26.5-4.6,26.5-4.6v-2.4c0-6.2-4.3-11.4-10-12.8V6c16.3,1.5,29.3,14.5,30.8,30.8h5.8C78.4,16.2,61.2,0,40.2,0"/>
	<path class="st0" d="M74.3,43.2C72.7,59.5,59.7,72.5,43.4,74v-5.2c5.8-1.4,10-6.6,10-12.8v-5.6C40.8,61.5,27,53.7,27,53.7v2.4
		c0,6.2,4.3,11.4,10,12.8V74C20.7,72.5,7.7,59.5,6.2,43.2H0.4C2,63.8,19.2,80,40.2,80c21,0,38.2-16.2,39.9-36.8H74.3z"/>
	<path class="st0" d="M25.7,48.3c1.7,2.6,5.3,5,12.6,4.4c0,0-5.6-0.9-7.8-3.8c0,0,6.8,2.9,8.9,2.4c0,0-1.5-5.2-8.5-7.5
		c-0.6-0.2-1.2-0.4-1.7-0.5C26.5,42.9,24.1,45.9,25.7,48.3"/>
	<rect x="66.3" y="36.8" class="st1" width="8" height="6.4"/>
	<path class="st0" d="M93.1,50.9h7.5c3.9,0,6.2,2,6.2,5.2c0,2.7-1.7,3.9-2.9,4.3c1.5,0.5,3.6,1.9,3.6,5.2c0,4-2.9,6.2-7.1,6.2h-7.2
		V50.9z M100,59.5c2.8,0,4-1.1,4-3.1c0-1.9-1.2-3.1-3.8-3.1H96v6.3H100z M96,69.6h4.1c2.5,0,4.4-1.2,4.4-3.9c0-2.4-1.5-3.9-4.7-3.9
		H96V69.6z"/>
	<path class="st0" d="M120.9,49.8h2.8v3.4h-2.8V49.8z M120.9,56.4h2.8v15.5h-2.8V56.4z"/>
	<path class="st0" d="M150.9,63.9c0,4.5-2,8.3-7,8.3c-4.9,0-6.8-3.9-6.8-8.2c0-4,2.2-7.9,7-7.9C148.6,56.1,150.9,59.5,150.9,63.9
		 M140,64c0,3.5,1.4,5.9,4.1,5.9c2.7,0,4-2.3,4-5.9c0-3.3-1.3-5.5-4-5.5C141.4,58.4,140,60.7,140,64"/>
	<path class="st0" d="M162.5,56.4h2.4V52h2.8v4.4h3.1v2.3h-3.1v9.3c0,1.2,0.3,1.8,1.6,1.8c0.4,0,0.8,0,1.1-0.1v2.1
		c-0.6,0.2-1.6,0.3-2.1,0.3c-2.4,0-3.5-0.9-3.5-3.6v-9.8h-2.4V56.4z"/>
	<path class="st0" d="M185.2,64.7c0,2.9,1.2,5.1,3.8,5.1c2.4,0,3.1-1.6,3.4-2.4h2.8c-0.6,2.1-2.1,4.7-6.3,4.7
		c-4.9,0-6.6-3.7-6.6-8.1c0-3.8,1.9-8,6.7-8c4.9,0,6.4,3.8,6.4,7.4c0,0.1,0,1.1,0,1.2H185.2z M192.7,62.7c-0.1-2.5-1.1-4.4-3.6-4.4
		c-2.9,0-3.6,2.6-3.7,4.4H192.7z"/>
	<path class="st0" d="M220.9,66.9c-0.6,3-2.5,5.3-6.3,5.3c-4.4,0-6.6-2.9-6.6-8c0-4.5,2.3-8,6.8-8c4.3,0,5.9,3,6.1,5.5H218
		c-0.3-1.7-1.2-3.2-3.3-3.2c-2.7,0-3.8,2.4-3.8,5.7c0,3.9,1.4,5.8,3.8,5.8c2.1,0,2.9-1.3,3.4-3.1H220.9z"/>
	<path class="st0" d="M236.9,49.8v8.8c0.7-1.4,2.2-2.5,4.5-2.5c2.4,0,4.9,1.2,4.9,5.6v10.2h-2.8v-9.7c0-2.2-0.9-3.6-3-3.6
		c-2.4,0-3.6,1.6-3.6,4.6v8.8H234V49.8H236.9z"/>
	<g>
		<defs>
			<path id="SVGID_1_" d="M90.9,21.7c0,6.6,2.6,11.7,9.5,11.7c5.7,0,8.2-3.5,8.8-7.3h-4c-0.5,2-1.6,4.1-4.8,4.1
				c-4.2,0-5.5-4-5.5-8.5c0-4.3,1.4-8.3,5.5-8.3c3.2,0,4.2,1.9,4.7,4h3.9c-0.3-3.6-2.7-7.3-8.5-7.3C94,10.1,90.9,15.5,90.9,21.7"/>
		</defs>
		<clipPath id="SVGID_2_">
			<use xlink:href="#SVGID_1_"  style="overflow:visible;"/>
		</clipPath>
		
			<linearGradient id="SVGID_3_" gradientUnits="userSpaceOnUse" x1="-651.4991" y1="460.8717" x2="-651.3235" y2="460.8717" gradientTransform="matrix(668.6526 0 0 -668.6526 435755.3125 308184.875)">
			<stop  offset="0" style="stop-color:#66BF79"/>
			<stop  offset="0.58" style="stop-color:#38B3AD"/>
			<stop  offset="1" style="stop-color:#38B3AD"/>
		</linearGradient>
		<rect x="90.9" y="10.1" class="st2" width="18.3" height="23.3"/>
	</g>
	<g>
		<defs>
			<path id="SVGID_4_" d="M115,28c0-1.3,0.6-2.7,4-2.7h2.3v0.4c0,2.8-0.8,4.8-3.7,4.8C115.8,30.4,115,29.3,115,28 M111.7,21.1h3.8
				c0.2-1.5,0.8-2.5,2.9-2.5c2.3,0,2.7,1.3,2.7,2.7v1.4H119c-6,0-7.9,2.6-7.9,5.5c0,2.5,1.4,5.2,5.6,5.2c2.6,0,4.2-1.1,4.9-2.5
				c0,0.7,0.1,1.7,0.3,2.2h3.4c-0.2-1.1-0.2-3-0.2-4.2v-7.6c0-4.1-2.6-5.5-6.5-5.5C113.5,15.8,111.9,18.4,111.7,21.1"/>
		</defs>
		<clipPath id="SVGID_5_">
			<use xlink:href="#SVGID_4_"  style="overflow:visible;"/>
		</clipPath>
		
			<linearGradient id="SVGID_6_" gradientUnits="userSpaceOnUse" x1="-651.4991" y1="460.8916" x2="-651.3235" y2="460.8916" gradientTransform="matrix(668.6526 0 0 -668.6526 435755.3125 308201)">
			<stop  offset="0" style="stop-color:#66BF79"/>
			<stop  offset="0.58" style="stop-color:#38B3AD"/>
			<stop  offset="1" style="stop-color:#38B3AD"/>
		</linearGradient>
		<rect x="111" y="15.8" class="st3" width="14.2" height="17.6"/>
	</g>
	<g>
		<defs>
			<path id="SVGID_7_" d="M132.6,18.5c0-0.8-0.1-2-0.1-2.4h-3.8c0,0.7,0.1,1.8,0.1,5.3v11.7h3.9v-9.3c0-3.2,1.1-4.7,3.4-4.7
				c2.3,0,2.9,1.6,2.9,3.7v10.4h3.9V22c0-4.1-2-6.2-5.4-6.2C134.9,15.8,133.3,17.1,132.6,18.5"/>
		</defs>
		<clipPath id="SVGID_8_">
			<use xlink:href="#SVGID_7_"  style="overflow:visible;"/>
		</clipPath>
		
			<linearGradient id="SVGID_9_" gradientUnits="userSpaceOnUse" x1="-651.4991" y1="460.8906" x2="-651.3235" y2="460.8906" gradientTransform="matrix(668.6526 0 0 -668.6526 435755.2813 308200.1563)">
			<stop  offset="0" style="stop-color:#66BF79"/>
			<stop  offset="0.58" style="stop-color:#38B3AD"/>
			<stop  offset="1" style="stop-color:#38B3AD"/>
		</linearGradient>
		<rect x="128.7" y="15.8" class="st4" width="14.1" height="17.3"/>
	</g>
	<g>
		<defs>
			<path id="SVGID_10_" d="M145.6,24.6c0,5.6,2.4,8.8,7.5,8.8c4.5,0,6.7-2.7,7.2-6.1h-3.9c-0.4,1.7-1.2,3.1-3.3,3.1
				c-2.3,0-3.6-1.8-3.6-5.9c0-3.3,1.1-5.7,3.7-5.7c2.1,0,2.9,1.5,3.2,3.2h3.9c-0.1-2.5-1.8-6.2-7-6.2
				C148.4,15.8,145.6,19.4,145.6,24.6"/>
		</defs>
		<clipPath id="SVGID_11_">
			<use xlink:href="#SVGID_10_"  style="overflow:visible;"/>
		</clipPath>
		
			<linearGradient id="SVGID_12_" gradientUnits="userSpaceOnUse" x1="-651.4991" y1="460.8916" x2="-651.3235" y2="460.8916" gradientTransform="matrix(668.6526 0 0 -668.6526 435755.3125 308201.0313)">
			<stop  offset="0" style="stop-color:#66BF79"/>
			<stop  offset="0.58" style="stop-color:#38B3AD"/>
			<stop  offset="1" style="stop-color:#38B3AD"/>
		</linearGradient>
		<rect x="145.6" y="15.8" class="st5" width="14.7" height="17.6"/>
	</g>
	<g>
		<defs>
			<path id="SVGID_13_" d="M169.5,18.8c2.5,0,3.4,1.8,3.5,4.1h-7.1C166,21.2,166.7,18.8,169.5,18.8 M161.9,24.6
				c0,4.9,2.1,8.8,7.5,8.8c4.6,0,6.5-2.8,7.2-5.4h-3.8c-0.3,0.8-1,2.3-3.2,2.3c-2.7,0-3.7-2.3-3.7-4.9h10.9c0-0.2,0-1.2,0-1.4
				c0-4.2-1.7-8.3-7.2-8.3C164,15.8,161.9,20.4,161.9,24.6"/>
		</defs>
		<clipPath id="SVGID_14_">
			<use xlink:href="#SVGID_13_"  style="overflow:visible;"/>
		</clipPath>
		
			<linearGradient id="SVGID_15_" gradientUnits="userSpaceOnUse" x1="-651.4991" y1="460.8916" x2="-651.3235" y2="460.8916" gradientTransform="matrix(668.6526 0 0 -668.6526 435755.3125 308201.0313)">
			<stop  offset="0" style="stop-color:#66BF79"/>
			<stop  offset="0.58" style="stop-color:#38B3AD"/>
			<stop  offset="1" style="stop-color:#38B3AD"/>
		</linearGradient>
		<rect x="161.9" y="15.8" class="st6" width="14.9" height="17.6"/>
	</g>
	<g>
		<defs>
			<path id="SVGID_16_" d="M183.3,19.3c0-1.3,0-2.4-0.1-3.1h-3.8c0.1,1.1,0.1,3,0.1,5.8v11.2h3.9v-7.9c0-3.8,1.6-5.4,5.2-5.4v-4
				C185.6,15.9,184,17.6,183.3,19.3"/>
		</defs>
		<clipPath id="SVGID_17_">
			<use xlink:href="#SVGID_16_"  style="overflow:visible;"/>
		</clipPath>
		
			<linearGradient id="SVGID_18_" gradientUnits="userSpaceOnUse" x1="-651.4991" y1="460.8907" x2="-651.3235" y2="460.8907" gradientTransform="matrix(668.6526 0 0 -668.6526 435755.3125 308200.2813)">
			<stop  offset="0" style="stop-color:#66BF79"/>
			<stop  offset="0.58" style="stop-color:#38B3AD"/>
			<stop  offset="1" style="stop-color:#38B3AD"/>
		</linearGradient>
		<rect x="179.4" y="15.8" class="st7" width="9.2" height="17.3"/>
	</g>
	<g>
		<defs>
			<polygon id="SVGID_19_" points="190.9,10.4 190.9,33.1 194.8,33.1 194.8,23.4 204.4,23.4 204.4,20.1 194.8,20.1 194.8,13.8 
				205,13.8 205,10.4 			"/>
		</defs>
		<clipPath id="SVGID_20_">
			<use xlink:href="#SVGID_19_"  style="overflow:visible;"/>
		</clipPath>
		
			<linearGradient id="SVGID_21_" gradientUnits="userSpaceOnUse" x1="-651.4991" y1="460.8716" x2="-651.3235" y2="460.8716" gradientTransform="matrix(668.6526 0 0 -668.6526 435755.3125 308184.8125)">
			<stop  offset="0" style="stop-color:#66BF79"/>
			<stop  offset="0.58" style="stop-color:#38B3AD"/>
			<stop  offset="1" style="stop-color:#38B3AD"/>
		</linearGradient>
		<rect x="190.9" y="10.4" class="st8" width="14.1" height="22.7"/>
	</g>
	<g>
		<defs>
			<path id="SVGID_22_" d="M210.8,19.3c0-1.3,0-2.4-0.1-3.1h-3.8c0.1,1.1,0.1,3,0.1,5.8v11.2h3.9v-7.9c0-3.8,1.6-5.4,5.2-5.4v-4
				C213.1,15.9,211.5,17.6,210.8,19.3"/>
		</defs>
		<clipPath id="SVGID_23_">
			<use xlink:href="#SVGID_22_"  style="overflow:visible;"/>
		</clipPath>
		
			<linearGradient id="SVGID_24_" gradientUnits="userSpaceOnUse" x1="-651.4991" y1="460.8907" x2="-651.3235" y2="460.8907" gradientTransform="matrix(668.6526 0 0 -668.6526 435755.3125 308200.2813)">
			<stop  offset="0" style="stop-color:#66BF79"/>
			<stop  offset="0.58" style="stop-color:#38B3AD"/>
			<stop  offset="1" style="stop-color:#38B3AD"/>
		</linearGradient>
		<rect x="206.9" y="15.8" class="st9" width="9.2" height="17.3"/>
	</g>
	<g>
		<defs>
			<path id="SVGID_25_" d="M224.6,18.8c2.5,0,3.4,1.8,3.5,4.1H221C221.1,21.2,221.8,18.8,224.6,18.8 M217,24.6
				c0,4.9,2.1,8.8,7.5,8.8c4.6,0,6.5-2.8,7.2-5.4h-3.8c-0.3,0.8-1,2.3-3.2,2.3c-2.7,0-3.7-2.3-3.7-4.9h10.9c0-0.2,0-1.2,0-1.4
				c0-4.2-1.7-8.3-7.2-8.3C219.1,15.8,217,20.4,217,24.6"/>
		</defs>
		<clipPath id="SVGID_26_">
			<use xlink:href="#SVGID_25_"  style="overflow:visible;"/>
		</clipPath>
		
			<linearGradient id="SVGID_27_" gradientUnits="userSpaceOnUse" x1="-651.4991" y1="460.8916" x2="-651.3235" y2="460.8916" gradientTransform="matrix(668.6526 0 0 -668.6526 435755.3125 308201.0313)">
			<stop  offset="0" style="stop-color:#66BF79"/>
			<stop  offset="0.58" style="stop-color:#38B3AD"/>
			<stop  offset="1" style="stop-color:#38B3AD"/>
		</linearGradient>
		<rect x="217" y="15.8" class="st10" width="14.9" height="17.6"/>
	</g>
	<g>
		<defs>
			<path id="SVGID_28_" d="M241.3,18.8c2.5,0,3.4,1.8,3.5,4.1h-7.1C237.8,21.2,238.5,18.8,241.3,18.8 M233.7,24.6
				c0,4.9,2.1,8.8,7.5,8.8c4.6,0,6.5-2.8,7.2-5.4h-3.8c-0.3,0.8-1,2.3-3.2,2.3c-2.7,0-3.7-2.3-3.7-4.9h10.9c0-0.2,0-1.2,0-1.4
				c0-4.2-1.7-8.3-7.2-8.3C235.8,15.8,233.7,20.4,233.7,24.6"/>
		</defs>
		<clipPath id="SVGID_29_">
			<use xlink:href="#SVGID_28_"  style="overflow:visible;"/>
		</clipPath>
		
			<linearGradient id="SVGID_30_" gradientUnits="userSpaceOnUse" x1="-651.4991" y1="460.8916" x2="-651.3235" y2="460.8916" gradientTransform="matrix(668.6526 0 0 -668.6526 435755.3125 308201.0313)">
			<stop  offset="0" style="stop-color:#66BF79"/>
			<stop  offset="0.58" style="stop-color:#38B3AD"/>
			<stop  offset="1" style="stop-color:#38B3AD"/>
		</linearGradient>
		<rect x="233.7" y="15.8" class="st11" width="14.9" height="17.6"/>
	</g>
	<g>
		<defs>
			<rect id="SVGID_31_" x="92.2" y="41.2" width="154.8" height="1.1"/>
		</defs>
		<clipPath id="SVGID_32_">
			<use xlink:href="#SVGID_31_"  style="overflow:visible;"/>
		</clipPath>
		
			<linearGradient id="SVGID_33_" gradientUnits="userSpaceOnUse" x1="-649.7775" y1="492.9396" x2="-649.6019" y2="492.9396" gradientTransform="matrix(0 -6 -6 0 3127.2834 -3856.4138)">
			<stop  offset="0" style="stop-color:#66BF79"/>
			<stop  offset="0.1522" style="stop-color:#55B788"/>
			<stop  offset="0.3521" style="stop-color:#47B095"/>
			<stop  offset="0.5954" style="stop-color:#3FAC9D"/>
			<stop  offset="1" style="stop-color:#3CAB9F"/>
		</linearGradient>
		<rect x="92.2" y="41.2" class="st12" width="154.8" height="1.1"/>
	</g>
</g>
</svg>
