<?xml version="1.0" encoding="utf-8"?>
<!-- Generator: Adobe Illustrator 24.2.3, SVG Export Plug-In . SVG Version: 6.00 Build 0)  -->
<svg version="1.1" id="圖層_1" xmlns="http://www.w3.org/2000/svg" xmlns:xlink="http://www.w3.org/1999/xlink" x="0px" y="0px"
	 viewBox="0 0 100 100" style="enable-background:new 0 0 100 100;" xml:space="preserve">
<style type="text/css">
	.st0{fill:#FFFFFF;}
</style>
<g>
	<g>
		<path class="st0" d="M74.8,91.7c-0.4,0-0.8-0.1-1.1-0.3L51.1,76.5l0,0l-8.5-5.6L32,89c-0.5,0.8-1.4,1.2-2.3,1
			c-0.9-0.2-1.5-1.1-1.5-2V61.5l-27-14.6c-0.7-0.4-1.1-1.2-1.1-2c0.1-0.8,0.6-1.5,1.4-1.8L97.2,8.5c0.7-0.3,1.6-0.1,2.1,0.4
			c0.6,0.5,0.8,1.3,0.6,2.1L76.8,90.2c-0.2,0.6-0.7,1.1-1.3,1.4C75.3,91.6,75,91.7,74.8,91.7z M53.4,73l20.2,13.3l21.2-72.5
			L7.2,45.4l24,13c0.7,0.4,1.1,1.1,1.1,1.8v20l7.8-13.4c0.3-0.5,0.8-0.8,1.3-1c0.6-0.1,1.1,0,1.6,0.3L53.4,73z"/>
	</g>
</g>
<g>
	<path class="st0" d="M41.9,70c-0.5,0-1-0.2-1.4-0.6c-0.8-0.8-0.9-2.1-0.1-2.9l28.2-29.2L39.4,56.9c-1,0.6-2.2,0.4-2.9-0.6
		c-0.6-1-0.4-2.3,0.6-2.9l45.6-30.7c0.9-0.6,2.1-0.4,2.8,0.4c0.7,0.8,0.6,2-0.1,2.8l-42,43.4C43,69.8,42.4,70,41.9,70z"/>
</g>
<g>
	<g>
		<path class="st0" d="M30.2,90c-0.7,0-1.4-0.4-1.8-1c-0.6-1-0.3-2.3,0.7-2.9L51.2,73c1-0.6,2.3-0.3,2.9,0.7c0.6,1,0.3,2.3-0.7,2.9
			L31.2,89.7C30.9,89.9,30.5,90,30.2,90z"/>
	</g>
</g>
</svg>
