<?xml version="1.0" encoding="utf-8"?>
<!-- Generator: Adobe Illustrator 24.2.3, SVG Export Plug-In . SVG Version: 6.00 Build 0)  -->
<svg version="1.1" id="圖層_1" xmlns="http://www.w3.org/2000/svg" xmlns:xlink="http://www.w3.org/1999/xlink" x="0px" y="0px"
	 viewBox="0 0 100 100" style="enable-background:new 0 0 100 100;" xml:space="preserve">
<style type="text/css">
	.st0{fill:#FFFFFF;}
</style>
<g>
	<path class="st0" d="M58,38.9c6.9,0,12.5-5.6,12.5-12.5c0-5.1-6.9-18.6-10.5-25.2c-0.9-1.6-3.2-1.6-4,0
		c-3.5,6.5-10.5,20.1-10.5,25.2C45.6,33.3,51.1,38.9,58,38.9 M48.4,24.9c0.2-0.8,0.5-1.7,0.8-2.7c0.3-0.9,1.3-1.4,2.2-1
		c0.9,0.3,1.4,1.3,1,2.2c-0.3,0.9-0.6,1.7-0.8,2.4c-0.2,0.8-0.9,1.3-1.7,1.3c-0.1,0-0.3,0-0.4-0.1C48.7,26.7,48.2,25.8,48.4,24.9
		 M76.3,52.1c-0.9-1.6-3.1-1.6-4,0C68,59.8,58.7,77.8,58.7,84.4c0,8.6,7,15.6,15.6,15.6c8.6,0,15.6-7,15.6-15.6
		C89.8,77.8,80.5,59.8,76.3,52.1 M70.9,71.4c-2.6,5.8-3.7,9.1-4.2,10.8c-0.2,0.8-0.9,1.3-1.7,1.3c-0.1,0-0.3,0-0.4-0.1
		c-0.9-0.2-1.5-1.2-1.2-2.1c0.7-2.7,2.2-6.6,4.4-11.4c0.4-0.9,1.4-1.2,2.3-0.9C70.9,69.5,71.3,70.5,70.9,71.4 M28.4,29.9
		C23.3,39.2,10.2,64,10.2,73c0,11.2,9,20.2,20.2,20.2s20.2-9,20.2-20.2c0-9-13.1-33.8-18.2-43.1C31.5,28.3,29.2,28.3,28.4,29.9
		 M19,67.5c-0.2,0.7-0.4,1.4-0.6,2c-0.2,0.8-0.9,1.3-1.7,1.3c-0.1,0-0.3,0-0.4-0.1c-0.9-0.2-1.5-1.2-1.2-2.1
		c0.2-0.7,0.4-1.4,0.6-2.2c0.3-0.9,1.2-1.4,2.1-1.1C18.8,65.6,19.3,66.6,19,67.5 M23.9,55.3c-1.1,2.3-2,4.5-2.8,6.5
		c-0.3,0.7-0.9,1.1-1.6,1.1c-0.2,0-0.4,0-0.6-0.1c-0.9-0.4-1.3-1.4-1-2.2c0.8-2,1.8-4.3,2.9-6.7c0.4-0.9,1.4-1.2,2.3-0.9
		C23.9,53.5,24.2,54.5,23.9,55.3 M75.5,39.7c0-2,1.6-3.5,3.5-3.5c2,0,3.5,1.6,3.5,3.5c0,2-1.6,3.5-3.5,3.5
		C77,43.2,75.5,41.6,75.5,39.7 M32.4,13.2c0-2,1.6-3.5,3.5-3.5c2,0,3.5,1.6,3.5,3.5s-1.6,3.5-3.5,3.5C34,16.7,32.4,15.1,32.4,13.2
		 M58,58.6c-3.6,0-6.5-2.9-6.5-6.5c0-3.6,2.9-6.5,6.5-6.5c3.6,0,6.5,2.9,6.5,6.5C64.6,55.7,61.6,58.6,58,58.6"/>
</g>
</svg>
