<?xml version="1.0" encoding="utf-8"?>
<!-- Generator: Adobe Illustrator 24.2.3, SVG Export Plug-In . SVG Version: 6.00 Build 0)  -->
<svg version="1.1" id="圖層_1" xmlns="http://www.w3.org/2000/svg" xmlns:xlink="http://www.w3.org/1999/xlink" x="0px" y="0px"
	 viewBox="0 0 100 100" style="enable-background:new 0 0 100 100;" xml:space="preserve">
<style type="text/css">
	.st0{fill:#FFFFFF;}
</style>
<g>
	<g>
		<path class="st0" d="M38.9,100c-4.3,0-8.5-1.3-12-4C12.5,84.9,3.8,69.4,2.3,52.2c-1.5-16.8,4.2-33.2,16-46.1
			C25-1.1,36.9-2.1,44.8,4c0.8,0.6,1.6,1.3,2.2,2l0.3,0.3c1.7,1.9,1.9,4.6,0.6,6.8l-12.8,20c-0.8,1.2-2.3,1.8-3.7,1.5
			c0,0-3.7-0.9-5.9-1.4C23.4,39,22.6,44.9,23.2,51c0.6,6,2.5,11.8,5.6,17.1c2.1-0.8,5.6-2.3,5.6-2.3c1.4-0.5,2.9-0.2,3.9,0.8
			l16.4,17.7c1.7,1.9,2,4.6,0.7,6.7l-0.2,0.4c-0.5,0.8-1.1,1.6-1.8,2.4l0,0C49.6,97.9,44.3,100,38.9,100z M32.7,4.1
			c-4.2,0-8.4,1.6-11.3,4.8c-11,12-16.3,27.3-15,42.9c1.4,16,9.6,30.5,23,40.8c6.3,4.8,15.6,4.1,20.9-1.7c0.5-0.6,1-1.2,1.4-1.8
			l0.2-0.3c0.3-0.5,0.3-1.2-0.2-1.7L35.6,69.8c-1.1,0.4-4.1,1.7-5.8,2.3c-1.6,0.6-3.4,0-4.2-1.4c-3.6-5.9-5.9-12.6-6.5-19.4
			c-0.7-6.8,0.3-13.8,2.8-20.2c0.6-1.6,2.3-2.4,4-2.1c1.7,0.4,4.9,1.1,6.1,1.4l12.5-19.6c0.4-0.6,0.3-1.2-0.2-1.7L44,8.9
			c-0.5-0.6-1.1-1.1-1.7-1.6C39.5,5.2,36.1,4.1,32.7,4.1z"/>
	</g>
	<g>
		<path class="st0" d="M83.3,85.4l-2.9-2.9C89,73.8,93.8,62.2,93.8,50c0-12.2-4.8-23.8-13.4-32.4l2.9-2.9c9.4,9.4,14.7,22,14.7,35.4
			C97.9,63.4,92.7,75.9,83.3,85.4z"/>
	</g>
	<g>
		<path class="st0" d="M73,75.1L70,72.1c5.9-5.9,9.2-13.8,9.2-22.1S75.9,33.8,70,27.9l2.9-2.9c6.7,6.7,10.4,15.6,10.4,25.1
			C83.3,59.5,79.7,68.4,73,75.1z"/>
	</g>
	<g>
		<path class="st0" d="M62.7,64.7l-2.9-2.9c3.1-3.1,4.9-7.3,4.9-11.8s-1.7-8.6-4.9-11.8l2.9-2.9c3.9,3.9,6.1,9.2,6.1,14.7
			S66.6,60.8,62.7,64.7z"/>
	</g>
</g>
</svg>
