<?xml version="1.0" encoding="utf-8"?>
<!-- Generator: Adobe Illustrator 24.2.3, SVG Export Plug-In . SVG Version: 6.00 Build 0)  -->
<svg version="1.1" id="圖層_1" xmlns="http://www.w3.org/2000/svg" xmlns:xlink="http://www.w3.org/1999/xlink" x="0px" y="0px"
	 viewBox="0 0 100 100" style="enable-background:new 0 0 100 100;" xml:space="preserve">
<style type="text/css">
	.st0{fill:#FFFFFF;}
</style>
<g>
	<g>
		<path class="st0" d="M50,100c-0.5,0-1-0.2-1.4-0.6c-1.5-1.4-36.1-34-36.1-61.9C12.5,16.8,29.3,0,50,0s37.5,16.8,37.5,37.5
			c0,27.9-34.6,60.6-36.1,61.9C51,99.8,50.5,100,50,100z M50,4.2c-18.4,0-33.3,15-33.3,33.3c0,23.1,26.8,51,33.3,57.5
			c6.5-6.5,33.3-34.5,33.3-57.5C83.3,19.1,68.4,4.2,50,4.2z"/>
	</g>
	<g>
		<path class="st0" d="M50,57.3c-10.9,0-19.8-8.9-19.8-19.8S39.1,17.7,50,17.7s19.8,8.9,19.8,19.8S60.9,57.3,50,57.3z M50,21.9
			c-8.6,0-15.6,7-15.6,15.6s7,15.6,15.6,15.6c8.6,0,15.6-7,15.6-15.6S58.6,21.9,50,21.9z"/>
	</g>
</g>
</svg>
