<?xml version="1.0" encoding="utf-8"?>
<!-- Generator: Adobe Illustrator 24.2.3, SVG Export Plug-In . SVG Version: 6.00 Build 0)  -->
<svg version="1.1" id="圖層_1" xmlns="http://www.w3.org/2000/svg" xmlns:xlink="http://www.w3.org/1999/xlink" x="0px" y="0px"
	 viewBox="0 0 100 100" style="enable-background:new 0 0 100 100;" xml:space="preserve">
<style type="text/css">
	.st0{fill:#FFFFFF;}
</style>
<g>
	<g>
		<path class="st0" d="M93.7,100H6.3C2.8,100,0,97.2,0,93.7V43.6c0-1.9,0.8-3.6,2.3-4.8L48.7,0.5c0.8-0.6,1.9-0.6,2.7,0l46.4,38.3
			c1.4,1.2,2.3,2.9,2.3,4.8v50.1C100,97.2,97.2,100,93.7,100z M50,4.8L4.9,42c-0.5,0.4-0.8,1-0.8,1.6v50.1c0,1.1,0.9,2.1,2.1,2.1
			h87.5c1.1,0,2.1-0.9,2.1-2.1V43.6c0-0.6-0.3-1.2-0.8-1.6L50,4.8z"/>
	</g>
	<g>
		<path class="st0" d="M79.2,89.6c-0.3,0-0.7-0.1-1-0.3L1.1,45.6c-1-0.6-1.4-1.8-0.8-2.8c0.6-1,1.8-1.4,2.8-0.8l77.1,43.7
			c1,0.6,1.4,1.8,0.8,2.8C80.6,89.2,79.9,89.6,79.2,89.6z"/>
	</g>
	<g>
		<path class="st0" d="M51.9,74.1c-0.7,0-1.4-0.4-1.8-1c-0.6-1-0.3-2.3,0.7-2.9l46-28.3c1-0.6,2.3-0.3,2.9,0.7
			c0.6,1,0.3,2.3-0.7,2.9L53,73.8C52.7,74,52.3,74.1,51.9,74.1z"/>
	</g>
	<g>
		<rect x="12.5" y="85.4" class="st0" width="8.3" height="4.2"/>
	</g>
	<g>
		<rect x="12.5" y="77.1" class="st0" width="16.7" height="4.2"/>
	</g>
	<g>
		<path class="st0" d="M81.2,56.1c-1.2,0-2.1-0.9-2.1-2.1v-9.8c0-0.2-0.2-0.4-0.4-0.4H21.3c-0.2,0-0.4,0.2-0.4,0.4v9
			c0,1.2-0.9,2.1-2.1,2.1s-2.1-0.9-2.1-2.1v-9c0-2.5,2.1-4.6,4.6-4.6h57.5c2.5,0,4.6,2.1,4.6,4.6V54C83.3,55.2,82.4,56.1,81.2,56.1z
			"/>
	</g>
</g>
</svg>
