<?xml version="1.0" encoding="utf-8"?>
<!-- Generator: Adobe Illustrator 24.2.3, SVG Export Plug-In . SVG Version: 6.00 Build 0)  -->
<svg version="1.1" id="圖層_1" xmlns="http://www.w3.org/2000/svg" xmlns:xlink="http://www.w3.org/1999/xlink" x="0px" y="0px"
	 viewBox="0 0 100 100" style="enable-background:new 0 0 100 100;" xml:space="preserve">
<style type="text/css">
	.st0{fill:#FFFFFF;}
</style>
<path class="st0" d="M85.2,85.2H70.4V62c0-5.5-0.1-12.7-7.7-12.7c-7.7,0-8.9,6-8.9,12.3v23.6H39V37.5h14.2V44h0.2
	c2.9-5,8.3-7.9,14-7.7c15,0,17.8,9.9,17.8,22.7L85.2,85.2z M22.2,31c-4.7,0-8.6-3.8-8.6-8.6c0-4.7,3.8-8.6,8.6-8.6s8.6,3.8,8.6,8.6
	c0,0,0,0,0,0C30.8,27.1,27,31,22.2,31L22.2,31 M29.7,85.2H14.8V37.5h14.8L29.7,85.2z M92.6,0H7.4C3.4,0,0,3.2,0,7.2c0,0,0,0,0,0
	v85.6c0,4,3.3,7.3,7.4,7.2h85.2c4,0.1,7.4-3.2,7.4-7.2V7.2C99.9,3.2,96.6-0.1,92.6,0"/>
</svg>
