<?xml version="1.0" encoding="utf-8"?>
<!-- Generator: Adobe Illustrator 24.2.3, SVG Export Plug-In . SVG Version: 6.00 Build 0)  -->
<svg version="1.1" id="圖層_1" xmlns="http://www.w3.org/2000/svg" xmlns:xlink="http://www.w3.org/1999/xlink" x="0px" y="0px"
	 viewBox="0 0 100 100" style="enable-background:new 0 0 100 100;" xml:space="preserve">
<style type="text/css">
	.st0{fill:#FFFFFF;}
</style>
<path class="st0" d="M97.9,26c-1.2-4.3-4.5-7.7-8.8-8.8C81.3,15,50,15,50,15s-31.3,0-39.1,2.1c-4.2,1.2-7.7,4.6-8.8,8.9
	C0,33.8,0,50,0,50s0,16.3,2.1,24c1.2,4.3,4.5,7.7,8.8,8.8C18.8,85,50,85,50,85s31.3,0,39.1-2.1c4.3-1.2,7.7-4.5,8.8-8.8
	c2.1-7.8,2.1-24,2.1-24S100.1,33.8,97.9,26z M40,65V35l26,15L40,65z"/>
</svg>
