<?xml version="1.0" encoding="utf-8"?>
<!-- Generator: Adobe Illustrator 24.2.3, SVG Export Plug-In . SVG Version: 6.00 Build 0)  -->
<svg version="1.1" id="圖層_1" xmlns="http://www.w3.org/2000/svg" xmlns:xlink="http://www.w3.org/1999/xlink" x="0px" y="0px"
	 viewBox="0 0 100 100" style="enable-background:new 0 0 100 100;" xml:space="preserve">
<style type="text/css">
	.st0{fill:#FFFFFF;}
</style>
<g id="Twitter">
	<path id="white_background" class="st0" d="M89.8,29.6c0.1,0.9,0.1,1.8,0.1,2.7c0,27.1-20.6,58.4-58.4,58.4v0
		c-11.1,0-22.1-3.2-31.4-9.2c1.6,0.2,3.3,0.3,4.9,0.3c9.2,0,18.2-3.1,25.5-8.8c-8.8-0.2-16.5-5.9-19.2-14.2c3.1,0.6,6.2,0.5,9.3-0.4
		C10.9,56.4,4,48,4,38.2c0-0.1,0-0.2,0-0.3c2.9,1.6,6,2.5,9.3,2.6c-9-6-11.8-18-6.3-27.4c10.4,12.8,25.8,20.6,42.3,21.4
		c-1.7-7.1,0.6-14.6,5.9-19.6c8.3-7.8,21.3-7.4,29,0.9c4.6-0.9,9-2.6,13-5c-1.5,4.7-4.7,8.8-9,11.3c4.1-0.5,8-1.6,11.8-3.2
		C97.2,23.1,93.8,26.7,89.8,29.6z"/>
</g>
</svg>
