<?xml version="1.0" encoding="utf-8"?>
<!-- Generator: Adobe Illustrator 24.2.3, SVG Export Plug-In . SVG Version: 6.00 Build 0)  -->
<svg version="1.1" id="圖層_1" xmlns="http://www.w3.org/2000/svg" xmlns:xlink="http://www.w3.org/1999/xlink" x="0px" y="0px"
	 viewBox="0 0 100 100" style="enable-background:new 0 0 100 100;" xml:space="preserve">
<style type="text/css">
	.st0{fill:#FFFFFF;}
</style>
<g>
	<path class="st0" d="M40,6.8c0-1.9,1.5-3.4,3.4-3.4h25.2c1.9,0,3.4,1.5,3.4,3.4V11c0,1.9-1.5,3.4-3.4,3.4H43.4
		c-1.9,0-3.4-1.5-3.4-3.4V6.8z M65.5,66.7c0,1,0.8,1.7,1.7,1.7h8.6c1,0,1.7-0.8,1.7-1.7c0-1-0.8-1.7-1.7-1.7h-8.6
		C66.3,64.9,65.5,65.7,65.5,66.7 M77.3,48.4c0-1.1-0.9-1.9-1.9-1.9H61.5c-1.1,0-1.9,0.9-1.9,1.9c0,1.1,0.9,1.9,1.9,1.9h13.8
		C76.5,50.4,77.3,49.5,77.3,48.4 M77.3,57.6c0-0.9-0.8-1.7-1.7-1.7h-9.8c-0.9,0-1.7,0.8-1.7,1.7c0,0.9,0.8,1.7,1.7,1.7h9.8
		C76.6,59.3,77.3,58.5,77.3,57.6 M53.5,39.3c0,0.9,0.8,1.7,1.7,1.7h20.4c0.9,0,1.7-0.8,1.7-1.7c0-0.9-0.8-1.7-1.7-1.7H55.2
		C54.2,37.6,53.5,38.3,53.5,39.3 M10,34.8c0,1.4,1.2,2.6,2.6,2.6H32c1.4,0,2.6-1.2,2.6-2.6v-3.3c0-1.4-1.2-2.6-2.6-2.6H12.6
		c-1.4,0-2.6,1.2-2.6,2.6V34.8z M28.6,77.7c0,0.8,0.7,1.5,1.5,1.5h7.2c0.8,0,1.5-0.7,1.5-1.5s-0.7-1.5-1.5-1.5H30
		C29.2,76.2,28.6,76.9,28.6,77.7 M38.7,63.6c0-0.8-0.7-1.5-1.5-1.5H26.5c-0.8,0-1.5,0.7-1.5,1.5c0,0.8,0.7,1.5,1.5,1.5h10.7
		C38,65.1,38.7,64.4,38.7,63.6 M38.7,70.6c0-0.7-0.6-1.3-1.3-1.3H29c-0.7,0-1.3,0.6-1.3,1.3c0,0.7,0.6,1.3,1.3,1.3h8.3
		C38.1,72,38.7,71.4,38.7,70.6 M20.3,56.6c0,0.7,0.6,1.3,1.3,1.3h15.7c0.7,0,1.3-0.6,1.3-1.3c0-0.7-0.6-1.3-1.3-1.3H21.6
		C20.9,55.3,20.3,55.9,20.3,56.6 M11.9,39.8h18.7c3,0,11.9,3.5,11.9,7.9v40c0,4.3-3.5,7.9-7.9,7.9H7.9c-4.3,0-7.9-3.5-7.9-7.9v-40
		C0,43.4,8.8,39.8,11.9,39.8 M16.3,79.3c0,2.9,2.3,5.2,5.2,5.2h19.1V50.9H21.5c-2.9,0-5.2,2.3-5.2,5.2V79.3z M44.6,90h15.6
		c-0.7-2-0.9-4.1-0.6-6.2c0.6-3.5,2.6-5.8,4.5-7.6l0.6-0.6H55c-3.8,0-6.8-3-6.8-6.8v-30c0-3.8,3-6.8,6.8-6.8h24.9v29.3l0.8-0.7
		c0.5-0.5,1.1-0.9,1.6-1.3V27.8c0-5.6-11.5-10.2-15.4-10.2H42.5c-3.9,0-15.4,4.6-15.4,10.2h6.3c1.6,0,3,2.1,3,3.7V35
		c0,1.1-0.6,2.1-1.6,2.6c4.2,1.2,9.8,4.3,9.8,8.1v44C44.6,89.8,44.6,89.9,44.6,90 M62.8,84.3c0.4-2.5,1.8-4.2,3.5-5.8
		c1.8-1.7,4.9-4.7,6.7-6.3c0.5-0.5,1.1-1,1.6-1.5c0.2-0.2,0.4-0.3,0.5-0.5c2.6-2.4,5.1-4.8,7.7-7.2c2.2-2.1,5-3.1,8.1-2.5
		c2,0.4,3.7,1.4,5.1,2.9c1.1,1.2,2.3,2.4,3,3.9c1.7,3.5,0.9,7.7-1.7,10.3c-2.7,2.5-5.4,5.1-8,7.6c-0.2,0.2-0.3,0.3-0.5,0.5
		c-2,1.9-5.1,4.8-6.9,6.5c-1.1,1-2.2,2.2-3.4,3.1c-3.6,2.4-8.5,1.8-11.7-1.5c-1-1-2-2.1-2.8-3.3C62.9,88.6,62.5,86.3,62.8,84.3
		 M76.1,72.1c-2.9,2.7-7.1,6.4-9.7,9.2c-1.4,1.5-2,3.8-1.6,5.9c0.3,1.9,1.4,3.2,2.7,4.6c1.3,1.4,2.6,2.4,4.5,2.9
		c2.1,0.5,4.3-0.1,5.9-1.5c2.8-2.4,6.7-6.3,9.5-9L76.1,72.1z"/>
</g>
</svg>
